# xmcd
#
# Track frame offsets: 
#        150
#        14518
#        28698
#        41691
#        54796
#        69201
#        82582
#        100663
#        115505
#        130598
#
# Disc length: 1924 seconds
#
# Revision: 4
# Processed by: cddbd v1.5.2PL0 Copyright (c) Steve Scherf et al.
# Submitted via: ExactAudioCopy v1.3
#
DISCID=6607820a
DTITLE=Clay Walker - Rumor Has It
DYEAR=1996
DGENRE=Country
TTITLE0=Rumor Has It
TTITLE1=One, Two, I Love You
TTITLE2=I'd Say That's Right
TTITLE3=Heart Over Head Over Heels
TTITLE4=Watch This
TTITLE5=You'll Never Hear The End Of It
TTITLE6=Country Boy And City Girl
TTITLE7=I Need A Margarita
TTITLE8=That's Us
TTITLE9=Then What
EXTD=
EXTT0=
EXTT1=
EXTT2=
EXTT3=
EXTT4=
EXTT5=
EXTT6=
EXTT7=
EXTT8=
EXTT9=
PLAYORDER=
